<svg width="32" height="53" viewBox="0 0 32 53" fill="none" xmlns="http://www.w3.org/2000/svg">
<path d="M-6.07222e-06 2.38419e-07H19.95C23.1 1.05 25.775 3 27.975 5.85C30.225 8.65 31.35 12.1 31.35 16.2C31.35 22.9 28.7 27.825 23.4 30.975L30.975 52.5H20.475L14.1 33.375H10.125V52.5H-6.07222e-06V2.38419e-07ZM10.125 9V24.975H16.575C17.425 24.775 18.35 23.925 19.35 22.425C20.4 20.875 20.925 19.075 20.925 17.025C20.925 14.975 20.475 13.175 19.575 11.625C18.725 10.075 17.875 9.2 17.025 9H10.125Z" fill="url(#paint0_linear_46_2)"/>
<defs>
<linearGradient id="paint0_linear_46_2" x1="-14.1737" y1="3.88636" x2="43.9132" y2="9.48278" gradientUnits="userSpaceOnUse">
<stop stop-color="#7083C7"/>
<stop offset="1" stop-color="#52189E"/>
</linearGradient>
</defs>
</svg>
