<svg width="377" height="377" viewBox="0 0 377 377" fill="none" xmlns="http://www.w3.org/2000/svg">
<path d="M107.763 152.664H127.713C130.863 153.714 133.538 155.664 135.738 158.514C137.988 161.314 139.113 164.764 139.113 168.864C139.113 175.564 136.463 180.489 131.163 183.639L138.738 205.164H128.238L121.863 186.039H117.888V205.164H107.763V152.664ZM117.888 161.664V177.639H124.338C125.188 177.439 126.113 176.589 127.113 175.089C128.163 173.539 128.688 171.739 128.688 169.689C128.688 167.639 128.238 165.839 127.338 164.289C126.488 162.739 125.638 161.864 124.788 161.664H117.888ZM159.577 174.714H153.952C153.202 175.614 152.577 176.864 152.077 178.464C151.627 180.064 151.402 181.614 151.402 183.114H162.127C162.227 181.614 162.027 180.064 161.527 178.464C161.027 176.814 160.377 175.564 159.577 174.714ZM169.777 197.289V205.164H150.727C147.227 202.814 144.752 199.914 143.302 196.464C141.902 192.964 141.202 189.439 141.202 185.889C141.202 177.689 144.302 171.339 150.502 166.839H162.652C166.002 169.289 168.277 171.889 169.477 174.639C170.677 177.389 171.277 180.164 171.277 182.964C171.277 185.764 171.052 188.164 170.602 190.164H151.927C152.077 191.314 152.502 192.639 153.202 194.139C153.952 195.589 154.752 196.639 155.602 197.289H169.777ZM194.384 187.839H186.359C185.309 189.139 184.784 190.764 184.784 192.714C184.784 194.664 185.334 196.189 186.434 197.289H194.384V187.839ZM178.259 166.839H196.859C199.859 168.639 201.834 170.714 202.784 173.064C203.734 175.364 204.209 178.514 204.209 182.514V193.764C204.209 197.914 204.309 201.714 204.509 205.164H195.959L194.609 202.464C192.659 204.264 189.909 205.164 186.359 205.164H181.634C177.384 202.364 175.259 198.339 175.259 193.089C175.259 187.789 177.434 183.614 181.784 180.564H188.834C190.784 180.564 192.609 181.164 194.309 182.364V178.614C194.309 176.664 193.459 175.364 191.759 174.714H178.259V166.839ZM219.96 185.664C219.96 187.764 220.285 189.914 220.935 192.114C221.585 194.264 222.485 195.989 223.635 197.289H234.885V205.164H218.46C212.56 200.464 209.61 193.964 209.61 185.664C209.61 177.364 212.76 171.089 219.06 166.839H234.885V174.714H223.635C221.185 177.264 219.96 180.914 219.96 185.664ZM242.134 188.439V174.714H236.959V166.839H242.134V156.414H252.109V166.839H258.259V174.714H252.109V190.839C252.109 193.889 252.634 196.039 253.684 197.289H258.259V205.164H247.609C244.959 202.714 243.359 200.064 242.809 197.214C242.359 194.814 242.134 191.889 242.134 188.439Z" fill="url(#paint0_linear_35_63)"/>
<path d="M35.3784 157.984C36.5575 156.265 37.4162 154.311 37.9545 152.121C38.4929 149.932 38.5541 148.303 38.1383 147.236C37.6978 146.162 36.592 145.408 34.8208 144.972C33.8859 144.742 33.0384 144.847 32.2782 145.286C31.5979 145.719 31.0773 146.139 30.7164 146.546L29.7255 147.711C29.4259 148.081 29.0652 148.54 28.6434 149.088C28.2276 149.612 27.8669 150.072 27.5612 150.466C27.2309 150.854 26.7752 151.381 26.1941 152.047C25.5884 152.707 25.1109 153.164 24.7617 153.417C24.3878 153.664 23.9434 153.933 23.4284 154.224C22.4965 154.725 21.4278 154.828 20.2223 154.531C18.1805 154.029 16.7661 152.938 15.9792 151.258C15.1678 149.571 15.0342 147.621 15.5786 145.407C16.1229 143.193 16.9355 141.214 18.0162 139.471L19.7433 140.404C18.8763 141.809 18.1978 143.507 17.7079 145.5C17.224 147.468 17.2021 148.936 17.6421 149.906C18.0576 150.869 19.0279 151.538 20.5531 151.913C21.6848 152.191 22.7617 151.843 23.784 150.868C24.6043 150.078 25.6838 148.817 27.0227 147.086C28.3369 145.348 29.3124 144.192 29.9492 143.618C31.5595 142.162 33.3763 141.669 35.3996 142.141C39.9015 143.247 41.4357 146.716 40.0023 152.546C39.4035 154.982 38.4873 157.17 37.2537 159.11L35.3784 157.984ZM27.4894 133.689C27.37 133.647 27.2892 133.686 27.247 133.805L26.741 135.238L25.7019 134.872L25.6029 132.983L22.5888 131.476L23.2339 129.648L26.1005 130.66C26.2931 130.648 26.5495 130.187 26.87 129.28L27.6163 127.165L29.1993 128.047L28.1725 131.069C28.0966 131.284 28.1065 131.409 28.202 131.442L39.5252 135.44L44.5123 136.152L43.9557 137.729L43.7976 137.834L38.7409 137.661L27.4894 133.689ZM29.9002 122.037L30.9472 119.8L43.0275 125.454C44.1855 125.968 45.1335 126.034 45.8716 125.652C46.6205 125.248 47.2634 124.472 47.8003 123.324C48.348 122.154 48.6079 121.031 48.58 119.955C48.5629 118.856 48.3969 118.135 48.082 117.792L34.7971 111.574L35.828 109.372L48.3214 115.219L53.0511 116.677L52.3745 118.123L52.223 118.178L49.9573 117.999C50.1351 119.173 50.2589 120.014 50.3287 120.522C50.3756 121.019 50.348 121.706 50.246 122.581C50.1318 123.423 49.8814 124.256 49.4948 125.082C47.9592 128.363 45.4429 129.228 41.9461 127.675L29.9002 122.037ZM60.0517 100.798C60.2961 101.734 60.3879 102.769 60.3272 103.902C60.2451 105.021 59.8638 106.114 59.1833 107.183C58.5028 108.251 57.7049 109.079 56.7895 109.668C55.8663 110.221 54.8802 110.449 53.831 110.351C51.9794 110.193 49.8891 109.372 47.5601 107.889C46.0858 106.95 44.9195 105.952 44.0611 104.894C43.1814 103.823 42.6203 102.865 42.3778 102.02C42.1276 101.14 42.0356 100.27 42.1021 99.4113C42.1959 98.1795 42.5286 97.1149 43.1002 96.2175C43.6718 95.32 44.8798 94.2723 46.7242 93.0743L38.0706 87.5622L39.3363 85.5751L58.855 98.0079L63.4154 99.8314L62.5784 101.145L62.4006 101.212L60.0517 100.798ZM44.3948 101.683C45.0588 102.856 46.5446 104.178 48.8522 105.648C51.1598 107.118 52.8985 107.925 54.0681 108.069C55.2377 108.214 56.3601 107.442 57.4353 105.754C58.5241 104.045 58.8105 102.275 58.2944 100.444L48.1024 93.9521C46.9945 94.7483 45.9371 95.9369 44.9299 97.5181C43.9228 99.0992 43.7444 100.487 44.3948 101.683ZM65.8519 77.3405C66.5543 77.9222 67.2376 78.5866 67.9016 79.3338L60.2915 88.5239C62.5024 90.2232 64.2843 91.0902 65.6369 91.1249C66.9701 91.1435 68.3153 90.3332 69.6726 88.6942C70.6905 87.465 71.6146 85.8127 72.445 83.7375L74.0538 84.7737C73.8578 85.3678 73.6938 85.8241 73.5618 86.1424C73.4265 86.425 73.2945 86.7433 73.1658 87.0972C73.0177 87.435 72.9066 87.6884 72.8325 87.8573C72.7584 88.0262 72.6456 88.2617 72.4941 88.5638C72.3426 88.8659 72.2039 89.1129 72.078 89.3047C71.7003 89.8799 71.3579 90.353 71.0509 90.7237C69.5321 92.5578 67.6926 93.4685 65.5323 93.4558C63.372 93.443 61.1407 92.4834 58.8382 90.5768C57.57 89.5266 56.587 88.4495 55.8895 87.3456C55.1724 86.2256 54.7379 85.2408 54.5861 84.3915C54.4147 83.526 54.4234 82.6615 54.6121 81.7981C54.8675 80.4967 55.412 79.3029 56.2454 78.217C59.1571 74.7405 62.3593 74.4483 65.8519 77.3405ZM63.8568 78.7966C62.686 77.8272 61.6242 77.4412 60.6712 77.6388C59.7182 77.8364 58.765 78.5108 57.8117 79.662C56.8584 80.8132 56.387 82.018 56.3974 83.2765C56.3883 84.5189 57.2049 85.8365 58.8473 87.2294L64.9548 79.8538C64.5545 79.4237 64.1885 79.0713 63.8568 78.7966ZM88.944 71.9274L87.1429 73.6177L77.9892 63.8643C77.1213 62.9765 76.2559 62.5727 75.3931 62.6529C74.5487 62.7157 73.674 63.1719 72.7688 64.0214C71.8822 64.8535 71.2249 65.8005 70.7969 66.8623C70.3874 67.9067 70.2654 68.6466 70.4308 69.082L80.5206 79.8328L78.7473 81.4971L69.2555 71.3836L65.6119 68.4452L66.8034 67.327L66.9385 67.3044L68.7912 68.2235C69.0217 67.1734 69.2361 66.3468 69.4344 65.7437C69.8783 64.1806 70.7006 62.8356 71.9013 61.7088C74.4874 59.2816 77.117 59.4367 79.7903 62.174L88.944 71.9274ZM83.3521 54.7959C83.2747 54.6956 83.1859 54.6841 83.0856 54.7614L81.8819 55.6896L81.209 54.8169L82.1523 53.1778L80.4414 50.2744L81.9761 49.091L83.8324 51.4984C84.0009 51.5924 84.4663 51.3455 85.2287 50.7576L87.0041 49.3886L87.854 50.9886L85.3494 52.9678C85.1689 53.107 85.1095 53.2168 85.1714 53.297L92.504 62.8063L96.303 66.115L94.9789 67.136L94.7889 67.1385L90.6383 64.2449L83.3521 54.7959ZM99.6973 60.3051C101.348 59.9718 102.75 59.4369 103.903 58.7004C105.056 57.9639 105.888 57.1016 106.399 56.1137C106.918 55.0907 106.925 54.1843 106.42 53.3944C105.916 52.6045 105.236 52.1521 104.381 52.037C103.512 51.9007 102.587 51.9354 101.606 52.1411C100.625 52.3469 99.6376 52.542 98.6432 52.7265C97.6564 52.8759 96.6945 52.8291 95.7576 52.586C94.807 52.3215 94.0453 51.7409 93.4724 50.8443C92.5722 49.4353 92.3744 48.0435 92.8791 46.6689C93.3701 45.273 94.3521 44.1045 95.8251 43.1633C97.3195 42.2086 98.9067 41.5403 100.587 41.1583L101.111 42.8973C99.8122 43.2164 98.4901 43.8056 97.1452 44.6648C94.9249 46.0833 94.3672 47.6572 95.472 49.3864C96.1813 50.4965 97.7284 50.8007 100.114 50.299C101.116 50.0796 102.128 49.899 103.149 49.7572C104.179 49.5805 105.183 49.6457 106.16 49.9529C107.16 50.2464 107.959 50.8629 108.559 51.8022C109.473 53.2325 109.557 54.7275 108.809 56.2871C108.062 57.8467 106.877 59.1448 105.255 60.1814C103.633 61.218 101.954 61.8846 100.219 62.1811L99.6973 60.3051ZM141.737 34.4896C141.828 33.5989 141.94 32.808 142.074 32.117C142.232 31.4176 142.412 30.818 142.612 30.3183L121.702 37.6366L121.175 36.1302L142.085 28.8119C141.608 28.5225 141.09 28.1537 140.53 27.7054C139.995 27.2487 139.418 26.7124 138.8 26.0967L140.055 25.6574C142.173 26.8757 144.203 27.6146 146.145 27.874L146.371 28.5196C145.006 29.91 143.88 31.7536 142.993 34.0502L141.737 34.4896ZM168.209 14.0076L169.089 22.7796L177.558 21.9302L177.771 24.0476L169.263 24.9008L170.416 36.3951L167.92 36.6454L165.463 12.1443L177.752 10.9119L177.699 13.0558L168.209 14.0076ZM197.985 23.374C197.972 24.2859 197.882 25.2347 197.715 26.2203L185.784 26.0449C185.845 28.8328 186.285 30.7648 187.105 31.841C187.926 32.8918 189.4 33.4329 191.528 33.4642C193.124 33.4876 194.991 33.173 197.128 32.5204L197.328 34.4235C196.743 34.6429 196.284 34.8009 195.953 34.8974C195.648 34.9689 195.317 35.0654 194.961 35.1868C194.605 35.2829 194.338 35.355 194.16 35.4031C193.982 35.4511 193.727 35.5107 193.397 35.5819C193.067 35.653 192.787 35.6996 192.559 35.7216C191.874 35.7875 191.291 35.8169 190.809 35.8099C188.428 35.7749 186.566 34.9114 185.223 33.2195C183.88 31.5275 183.23 29.1871 183.274 26.198C183.298 24.5516 183.522 23.1107 183.945 21.8755C184.369 20.6149 184.865 19.6594 185.432 19.009C185.999 18.3333 186.678 17.7985 187.47 17.4048C188.644 16.7886 189.916 16.4653 191.284 16.4347C195.818 16.5267 198.052 18.8398 197.985 23.374ZM195.6 22.7309C195.622 21.211 195.258 20.1416 194.507 19.5224C193.756 18.9033 192.633 18.5828 191.139 18.5608C189.644 18.5389 188.41 18.9261 187.435 19.7225C186.461 20.4936 185.946 21.9555 185.889 24.1083L195.464 24.249C195.548 23.6675 195.594 23.1615 195.6 22.7309ZM205.426 8.0639L207.769 8.30402L205.38 31.6279L205.829 36.5634L204.09 36.3853L203.954 36.2186L203.036 31.3878L205.426 8.0639ZM215.145 9.25485L217.472 9.62199L213.819 32.7816L213.999 37.7342L212.272 37.4618L212.146 37.288L211.491 32.4144L215.145 9.25485ZM233.024 25.2614C232.699 24.9961 232.282 24.7337 231.773 24.474C231.288 24.2205 230.579 23.9755 229.646 23.739C228.713 23.5026 227.85 23.4537 227.057 23.5925C226.295 23.7129 225.648 24.0979 225.118 24.7475C224.618 25.3788 224.223 26.0626 223.931 26.799C223.646 27.5108 223.339 28.5175 223.009 29.819C222.306 32.5939 222.128 34.5872 222.474 35.7987C222.845 37.0165 224.098 37.896 226.235 38.4375C227.389 38.73 228.36 38.8191 229.146 38.7049C229.933 38.5907 230.586 38.2333 231.104 37.6328C231.628 37.0078 232.036 36.3271 232.327 35.5907C232.624 34.8298 232.907 33.9214 233.174 32.8654C233.448 31.7849 233.629 31.0205 233.716 30.5723C233.835 30.1057 233.931 29.5684 234.007 28.9603C234.089 28.3277 234.097 27.8331 234.03 27.4766C233.988 27.1262 233.891 26.7357 233.739 26.3051C233.587 25.8745 233.348 25.5266 233.024 25.2614ZM230.574 21.7789C232.49 22.2643 233.91 22.8987 234.835 23.682C235.767 24.4407 236.319 25.5607 236.493 27.0421C236.666 28.5234 236.482 30.3323 235.941 32.4688C235.399 34.6052 234.733 36.2528 233.943 37.4116C233.178 38.5765 232.327 39.4063 231.391 39.901C229.582 40.8537 227.695 41.0811 225.73 40.5833C222.857 39.8552 221.039 38.6758 220.276 37.0451C219.514 35.4144 219.587 32.8064 220.495 29.2211C220.931 27.5021 221.544 26.0632 222.334 24.9045C223.124 23.7457 223.996 22.9344 224.95 22.4705C226.808 21.5303 228.683 21.2997 230.574 21.7789ZM254.643 30.5503L257.12 31.6186L255.156 46.8277L254.813 48.2939L254.883 48.324L255.714 47.0685L265.495 35.2297L267.937 36.283L255.091 51.1037L252.683 50.0655L254.472 35.36L254.881 33.5496L254.776 33.5045L253.74 35.044L244.239 46.4243L241.831 45.3861L243.86 25.901L246.303 26.9543L244.338 42.1634L243.961 43.6145L244.066 43.6597L244.862 42.3891L254.643 30.5503ZM264.84 52.8797C265.856 54.2226 266.947 55.2536 268.11 55.9727C269.274 56.6918 270.412 57.0674 271.524 57.0993C272.671 57.123 273.49 56.7362 273.983 55.9388C274.476 55.1414 274.589 54.3326 274.321 53.5122C274.067 52.6703 273.635 51.8521 273.024 51.0577C272.413 50.2632 271.809 49.458 271.211 48.642C270.648 47.8178 270.273 46.9308 270.086 45.9812C269.912 45.0099 270.104 44.0718 270.663 43.1666C271.542 41.7443 272.711 40.9623 274.168 40.8206C275.639 40.6574 277.118 41.0352 278.605 41.9541C280.113 42.8863 281.404 44.0264 282.477 45.3744L281.138 46.6017C280.287 45.5695 279.182 44.6338 277.825 43.7949C275.583 42.4099 273.923 42.5902 272.845 44.3358C272.152 45.4564 272.549 46.9824 274.036 48.9136C274.668 49.7214 275.27 50.5548 275.841 51.4139C276.447 52.2648 276.824 53.1974 276.971 54.2117C277.14 55.2393 276.932 56.2273 276.346 57.1755C275.454 58.6194 274.143 59.343 272.413 59.3465C270.684 59.3499 269 58.8455 267.363 57.8334C265.725 56.8213 264.396 55.5982 263.376 54.164L264.84 52.8797ZM306.348 79.5418C307.19 79.2368 307.951 78.9946 308.632 78.815C309.33 78.6534 309.948 78.5545 310.486 78.5184L294.811 62.8622L295.939 61.733L311.614 77.3892C311.667 76.8338 311.774 76.2068 311.935 75.5081C312.114 74.8273 312.346 74.0748 312.632 73.2506L313.573 74.1905C313.396 76.6268 313.612 78.7763 314.222 80.6389L313.738 81.1229C311.893 80.497 309.743 80.2833 307.289 80.4817L306.348 79.5418ZM339.57 96.0312L341.324 98.9671L324.454 118.741L323.07 116.425L328.321 110.322L323.409 102.101L315.547 103.833L314.163 101.517L339.57 96.0312ZM325.587 101.597L329.816 108.676L338.711 98.669L338.652 98.5711L325.587 101.597ZM351.487 110.282L352.486 112.416L331.254 122.361L327.252 125.285L326.511 123.702L326.584 123.5L330.255 120.228L351.487 110.282ZM347.032 123.437L347.869 125.761L335.32 130.282C334.137 130.735 333.419 131.357 333.165 132.148C332.921 132.964 333.013 133.967 333.442 135.159C333.88 136.374 334.488 137.353 335.268 138.096C336.055 138.862 336.682 139.256 337.147 139.277L350.947 134.306L351.771 136.594L338.794 141.269L334.413 143.574L333.873 142.072L333.941 141.926L335.673 140.454C334.718 139.748 334.037 139.239 333.629 138.929C333.244 138.609 332.78 138.104 332.234 137.411C331.721 136.735 331.31 135.967 331.001 135.109C329.773 131.701 330.946 129.313 334.519 127.945L347.032 123.437ZM338.162 161.862L337.717 159.432L350.874 157.023C352.161 156.736 353 156.324 353.391 155.789C353.812 155.274 353.915 154.431 353.7 153.26C353.486 152.089 353.036 151.038 352.35 150.108C351.694 149.198 351.139 148.694 350.683 148.597L336.218 151.247L335.78 148.854L349.423 146.356L353.866 144.885L354.188 146.642L354.097 146.775L352.33 147.678C353.127 148.51 353.703 149.126 354.059 149.524C354.42 149.947 354.813 150.545 355.238 151.317C355.662 152.089 355.952 152.899 356.107 153.746C356.491 155.84 355.912 157.388 354.37 158.391C355.132 159.179 355.696 159.797 356.061 160.245C357.114 161.494 357.778 162.867 358.052 164.362C358.325 165.857 358.112 167.081 357.411 168.033C356.714 169.011 355.334 169.701 353.27 170.105L340.113 172.515L339.668 170.085L352.825 167.676C354.112 167.388 354.951 166.977 355.342 166.442C355.763 165.927 355.864 165.072 355.645 163.875C355.43 162.704 354.982 161.666 354.302 160.76C353.645 159.85 353.087 159.335 352.627 159.213L338.162 161.862ZM340.943 192.331L340.896 189.862L354.269 189.607C355.51 189.558 356.39 189.187 356.908 188.493C357.428 187.824 357.676 186.869 357.652 185.628C357.629 184.412 357.367 183.29 356.866 182.26C356.365 181.256 355.898 180.67 355.464 180.501L340.723 180.781L340.676 178.35L354.544 178.086L359.167 177.352L359.198 178.985L359.124 179.101L357.2 179.86C357.825 180.734 358.295 181.448 358.609 181.999C359.472 183.376 359.918 184.888 359.95 186.534C360.017 190.08 358.139 191.928 354.316 192.077L340.943 192.331ZM359.434 199.472L359.266 201.822L340.617 200.489L340.785 198.139L359.434 199.472ZM365.699 199.768L365.509 202.421L362.78 202.226L362.97 199.573L365.699 199.768ZM340.39 239.171C341.064 239.76 341.644 240.31 342.13 240.818C342.609 241.352 342.995 241.845 343.286 242.298L349.414 221.008L350.947 221.45L344.82 242.739C345.332 242.518 345.933 242.308 346.622 242.111C347.304 241.939 348.075 241.778 348.935 241.63L348.567 242.908C346.349 243.931 344.572 245.159 343.236 246.594L342.579 246.404C342.234 244.486 341.382 242.501 340.022 240.449L340.39 239.171ZM328.417 269.791L329.602 267.843L330.485 266.335L322.157 261.456L323.444 259.26L344.691 271.705L341.042 277.935C340.364 279.093 339.717 280.021 339.103 280.718C338.498 281.45 337.771 282.066 336.92 282.566C335.175 283.541 332.958 283.24 330.269 281.666C328.018 280.347 326.681 278.845 326.259 277.159C326.091 276.444 326.1 275.627 326.285 274.708C326.493 273.802 326.756 273.002 327.075 272.308C327.393 271.614 327.841 270.775 328.417 269.791ZM331.087 269.593L329.594 272.066C328.557 273.837 328.126 275.199 328.302 276.153C328.499 277.12 329.559 278.167 331.483 279.294C333.406 280.42 334.878 280.739 335.898 280.251C336.906 279.784 338.03 278.49 339.272 276.37L341.404 272.73L332.354 267.429L331.087 269.593ZM314.201 293.408L310.647 290.612C310.086 290.178 309.557 289.785 309.06 289.433L304.882 287.259L304.708 287.173L305.731 285.85L305.914 285.799L308.215 286.426C308.374 283.571 309.121 281.218 310.455 279.368C311.432 278.105 312.514 277.389 313.702 277.219C314.895 277.084 316.102 277.49 317.325 278.435C319.008 279.737 319.786 281.091 319.659 282.498C319.532 283.905 318.833 285.43 317.563 287.073C317.408 287.273 316.41 288.439 314.57 290.571L316.524 292.082C317.846 293.105 318.952 293.559 319.84 293.446C320.733 293.368 321.521 292.888 322.202 292.006C322.884 291.124 323.931 289.211 325.342 286.268L326.995 287.113C325.815 290.172 324.806 292.242 323.969 293.324C322.698 294.967 321.18 295.875 319.414 296.046C318.344 296.147 316.606 295.268 314.201 293.408ZM313.066 289.409L315.627 286.345C316.867 284.742 317.513 283.576 317.564 282.847C317.615 282.118 317.16 281.382 316.198 280.638C315.256 279.909 314.481 279.566 313.872 279.608C313.283 279.665 312.687 280.084 312.083 280.866C311.463 281.668 310.902 282.724 310.402 284.034C309.886 285.364 309.722 286.342 309.91 286.968L313.066 289.409ZM309.751 309.691C309.401 310.058 308.962 310.41 308.433 310.746L307.437 308.539C307.772 308.298 308.079 308.031 308.358 307.737C309.458 306.581 309.934 304.795 309.784 302.38L299.653 292.74L301.277 291.033L311.298 300.568L315.102 303.296L314.106 304.342L313.973 304.372L311.521 303.035C311.541 304.594 311.439 305.895 311.214 306.94C310.99 307.985 310.502 308.902 309.751 309.691ZM303.194 312.836C303.279 312.93 303.368 312.935 303.462 312.85L304.591 311.831L305.329 312.65L304.515 314.357L306.445 317.119L305.007 318.418L302.97 316.161C302.795 316.08 302.35 316.362 301.635 317.007L299.971 318.509L299 316.98L301.344 314.813C301.513 314.66 301.564 314.546 301.496 314.471L293.451 305.557L289.407 302.551L290.649 301.431L290.838 301.414L295.2 303.978L303.194 312.836ZM272.981 315.327L274.969 313.86L282.914 324.621C283.671 325.604 284.483 326.107 285.35 326.129C286.196 326.165 287.118 325.815 288.116 325.078C289.095 324.356 289.859 323.492 290.408 322.488C290.938 321.499 291.146 320.779 291.033 320.327L282.275 308.466L284.231 307.021L292.47 318.179L295.743 321.525L294.429 322.495L294.292 322.502L292.56 321.372C292.208 322.388 291.898 323.183 291.63 323.759C291.006 325.259 290.031 326.498 288.707 327.476C285.853 329.583 283.26 329.12 280.927 326.088L272.981 315.327ZM262.038 335.823C261.593 335.027 261.196 334.161 260.847 333.224L271.265 327.406C269.817 325.022 268.469 323.57 267.221 323.049C265.984 322.55 264.437 322.819 262.579 323.856C261.186 324.635 259.727 325.841 258.203 327.476L257.077 325.928C257.475 325.445 257.793 325.079 258.031 324.83C258.259 324.615 258.497 324.366 258.745 324.083C259.005 323.821 259.2 323.625 259.331 323.495C259.461 323.364 259.651 323.185 259.901 322.958C260.152 322.731 260.37 322.551 260.557 322.418C261.117 322.018 261.607 321.701 262.028 321.466C264.107 320.305 266.151 320.121 268.161 320.913C270.17 321.706 271.904 323.407 273.362 326.017C274.165 327.455 274.692 328.814 274.943 330.096C275.207 331.399 275.256 332.474 275.091 333.321C274.937 334.19 274.617 334.993 274.129 335.73C273.42 336.851 272.481 337.767 271.312 338.479C267.34 340.668 264.249 339.782 262.038 335.823ZM264.424 335.187C265.166 336.514 266.016 337.258 266.976 337.418C267.936 337.578 269.069 337.294 270.373 336.565C271.678 335.836 272.553 334.883 272.999 333.706C273.456 332.551 273.171 331.027 272.143 329.135L263.783 333.804C264 334.35 264.214 334.811 264.424 335.187ZM251.979 347.836C251.514 348.036 250.972 348.186 250.353 348.286L250.307 345.866C250.709 345.776 251.097 345.651 251.469 345.492C252.936 344.862 254.076 343.408 254.89 341.129L249.375 328.278L251.54 327.349L256.995 340.06L259.417 344.065L258.09 344.635L257.955 344.61L256.228 342.416C255.633 343.856 255.027 345.012 254.408 345.884C253.79 346.756 252.98 347.407 251.979 347.836ZM241.301 334.316C239.619 334.219 238.127 334.381 236.825 334.8C235.523 335.22 234.5 335.843 233.755 336.669C232.993 337.527 232.756 338.402 233.044 339.294C233.332 340.186 233.874 340.796 234.672 341.124C235.478 341.477 236.381 341.678 237.382 341.728C238.383 341.778 239.388 341.84 240.397 341.914C241.389 342.019 242.308 342.309 243.152 342.782C244.005 343.279 244.594 344.034 244.921 345.046C245.434 346.638 245.272 348.034 244.435 349.236C243.606 350.461 242.359 351.342 240.696 351.879C239.008 352.423 237.303 352.667 235.581 352.61L235.515 350.795C236.853 350.816 238.281 350.581 239.8 350.091C242.307 349.283 243.246 347.902 242.617 345.949C242.212 344.695 240.793 344.008 238.359 343.888C237.334 343.846 236.309 343.764 235.285 343.642C234.244 343.552 233.29 343.234 232.422 342.689C231.53 342.151 230.913 341.352 230.571 340.291C230.05 338.676 230.348 337.208 231.467 335.89C232.586 334.571 234.061 333.616 235.893 333.025C237.726 332.434 239.519 332.215 241.272 332.368L241.301 334.316ZM194.068 348.578C193.753 349.416 193.442 350.152 193.136 350.786C192.805 351.422 192.479 351.956 192.157 352.388L214.243 350.649L214.368 352.24L192.282 353.979C192.67 354.38 193.077 354.869 193.503 355.445C193.904 356.024 194.325 356.689 194.766 357.442L193.44 357.547C191.704 355.828 189.929 354.596 188.117 353.849L188.063 353.167C189.738 352.171 191.298 350.676 192.742 348.682L194.068 348.578ZM161.133 362.516C159.99 362.888 158.957 363.072 158.033 363.07C157.104 363.092 155.927 362.983 154.504 362.741C153.08 362.5 151.389 361.866 149.43 360.84L150.366 358.956C152.538 359.787 154.173 360.295 155.272 360.482C156.346 360.664 157.281 360.758 158.077 360.765C158.868 360.796 159.709 360.682 160.601 360.422C161.468 360.158 162.201 359.704 162.798 359.06C164.152 357.594 165.116 355.162 165.692 351.765C166.4 347.594 166.125 344.67 164.868 342.992C164.258 342.195 163.589 341.593 162.861 341.187C162.129 340.806 161.301 340.537 160.377 340.38C159.428 340.219 158.724 340.126 158.266 340.1C156.801 339.954 155.284 340.185 153.716 340.793L153.198 338.623C155.204 337.704 157.655 337.491 160.553 337.982C161.677 338.173 162.638 338.413 163.437 338.702C164.24 338.967 165.063 339.415 165.907 340.046C166.746 340.702 167.392 341.519 167.843 342.494C168.269 343.466 168.548 344.772 168.681 346.414C168.814 348.055 168.7 349.937 168.34 352.06C167.976 354.208 167.411 356.027 166.644 357.515C165.878 359.004 165.059 360.124 164.186 360.876C163.288 361.623 162.271 362.17 161.133 362.516ZM134.866 348.497C135.177 348.779 135.579 349.063 136.074 349.349C136.544 349.628 137.239 349.911 138.158 350.196C139.078 350.482 139.937 350.576 140.736 350.48C141.504 350.4 142.17 350.05 142.734 349.43C143.267 348.826 143.698 348.164 144.028 347.444C144.35 346.748 144.71 345.759 145.109 344.477C145.958 341.743 146.242 339.762 145.961 338.534C145.655 337.298 144.45 336.354 142.345 335.7C141.208 335.346 140.243 335.206 139.452 335.278C138.66 335.35 137.989 335.673 137.44 336.245C136.883 336.841 136.44 337.499 136.11 338.219C135.773 338.963 135.443 339.855 135.119 340.896C134.789 341.96 134.568 342.714 134.457 343.157C134.314 343.616 134.188 344.148 134.081 344.751C133.965 345.378 133.931 345.872 133.979 346.231C134.002 346.583 134.078 346.978 134.207 347.417C134.336 347.855 134.556 348.215 134.866 348.497ZM137.128 352.104C135.241 351.518 133.856 350.809 132.974 349.978C132.084 349.171 131.592 348.023 131.497 346.535C131.402 345.046 131.682 343.25 132.336 341.145C132.99 339.04 133.742 337.43 134.593 336.315C135.419 335.192 136.313 334.409 137.273 333.964C139.131 333.109 141.027 332.982 142.963 333.584C145.793 334.463 147.546 335.737 148.221 337.406C148.896 339.075 148.685 341.676 147.588 345.208C147.061 346.901 146.373 348.305 145.522 349.421C144.672 350.536 143.758 351.3 142.781 351.712C140.875 352.552 138.991 352.683 137.128 352.104ZM118.693 323.688L120.9 324.796L114.895 336.749C114.349 337.949 114.171 338.866 114.363 339.501C114.52 340.147 115.131 340.737 116.195 341.272C117.259 341.806 118.368 342.08 119.524 342.094C120.645 342.119 121.382 341.978 121.734 341.673L128.336 328.532L130.509 329.624L124.282 342.018L122.778 346.451L121.182 345.649L121.132 345.496L121.475 343.542C120.331 343.676 119.492 343.765 118.96 343.809C118.405 343.842 117.691 343.795 116.819 343.669C115.947 343.543 115.126 343.286 114.356 342.9C112.455 341.944 111.568 340.549 111.696 338.714C110.608 338.848 109.775 338.925 109.198 338.947C107.566 339.034 106.071 338.737 104.713 338.055C103.355 337.372 102.507 336.464 102.169 335.331C101.809 334.186 102.089 332.668 103.01 330.778L109.015 318.825L111.223 319.934L105.218 331.887C104.671 333.087 104.494 334.004 104.685 334.639C104.843 335.285 105.465 335.881 106.551 336.427C107.615 336.961 108.714 337.23 109.847 337.232C110.968 337.257 111.716 337.122 112.091 336.828L118.693 323.688ZM93.6463 307.554L95.5955 309.071L87.3799 319.627C86.6107 320.698 86.2583 321.563 86.3225 322.223C86.3511 322.887 86.8353 323.585 87.7749 324.316C88.7145 325.048 89.7497 325.533 90.8806 325.771C91.9759 326.013 92.7258 326.019 93.1302 325.788L102.163 314.183L104.082 315.677L95.5629 326.622L93.2252 330.677L91.8158 329.58L91.7959 329.42L92.513 327.571C91.3644 327.479 90.5245 327.404 89.9935 327.343C89.4425 327.268 88.7516 327.083 87.9207 326.789C87.0898 326.496 86.3345 326.085 85.6548 325.556C83.9755 324.249 83.3772 322.707 83.86 320.932C82.7668 320.852 81.9348 320.766 81.3638 320.675C79.7463 320.443 78.3378 319.861 77.1383 318.927C75.9388 317.993 75.2838 316.938 75.1731 315.76C75.0424 314.567 75.6128 313.133 76.8843 311.458L85.0999 300.902L87.0491 302.42L78.8334 312.975C78.0643 314.046 77.7118 314.911 77.7761 315.571C77.8047 316.235 78.2988 316.941 79.2584 317.688C80.198 318.419 81.2233 318.896 82.3341 319.119C83.4295 319.361 84.1893 319.375 84.6138 319.16L93.6463 307.554ZM67.2302 309.788L65.5524 307.975L75.341 298.915C76.2534 298.036 76.6718 297.183 76.5962 296.355C76.5034 295.509 76.0268 294.621 75.1664 293.692C74.2888 292.744 73.3464 292.08 72.3393 291.7C71.3149 291.302 70.5845 291.184 70.1479 291.347L59.3832 301.31L57.7313 299.525L67.8545 290.156L70.9875 286.324L72.0716 287.495L72.0653 287.656L71.0457 289.687C72.2002 289.965 73.026 290.167 73.523 290.294C74.0015 290.438 74.6269 290.722 75.3993 291.146C76.1358 291.569 76.8139 292.115 77.4334 292.785C79.8941 295.443 79.7466 298.1 76.9909 300.754L67.2302 309.788ZM59.4824 270.654L60.9124 272.668L50.006 280.412C49.0086 281.151 48.4909 281.954 48.4532 282.82C48.4007 283.665 48.7338 284.593 49.4525 285.605C50.1565 286.597 51.0054 287.377 51.9992 287.945C52.9783 288.492 53.6948 288.714 54.1486 288.609L66.1703 280.073L67.5783 282.056L56.2692 290.086L52.8632 293.297L51.9172 291.965L51.9131 291.828L53.0753 290.117C52.0663 289.746 51.2764 289.421 50.7059 289.143C49.2176 288.491 47.9968 287.493 47.0435 286.151C44.9901 283.259 45.501 280.675 48.576 278.398L59.4824 270.654ZM40.1766 275.157L38.9932 273.12L55.1596 263.729L56.343 265.766L40.1766 275.157ZM34.8313 278.438L33.4952 276.138L35.861 274.764L37.1971 277.064L34.8313 278.438ZM37.224 265.656C37.1107 265.713 37.0823 265.798 37.139 265.911L37.8183 267.271L36.8325 267.763L35.4054 266.522L32.2271 267.643L31.361 265.909L34.0804 264.55C34.2051 264.403 34.0523 263.899 33.6221 263.038L32.62 261.032L34.3536 260.506L35.8142 263.344C35.9161 263.548 36.0124 263.628 36.103 263.582L46.8449 258.216L50.8225 255.124L51.5698 256.62L51.5358 256.806L47.8979 260.323L37.224 265.656ZM30.6397 256.424L29.7153 254.257L46.9121 246.922L47.8365 249.089L30.6397 256.424ZM24.9321 259.024L23.8884 256.577L26.405 255.504L27.4487 257.95L24.9321 259.024ZM28.9919 232.063C29.8594 231.781 30.7865 231.561 31.7732 231.4L35.4542 242.75C38.0737 241.794 39.7605 240.755 40.5147 239.631C41.2448 238.515 41.2817 236.946 40.6252 234.921C40.1328 233.403 39.2331 231.738 37.9259 229.924L39.6629 229.121C40.0596 229.605 40.3569 229.988 40.5549 230.27C40.7209 230.536 40.9189 230.818 41.1488 231.116C41.3546 231.422 41.509 231.652 41.6119 231.805C41.7148 231.958 41.8532 232.179 42.0271 232.469C42.201 232.759 42.3351 233.009 42.4296 233.218C42.7129 233.845 42.9288 234.387 43.0773 234.845C43.8119 237.11 43.595 239.151 42.4266 240.969C41.2582 242.786 39.2522 244.155 36.4087 245.077C34.8423 245.585 33.4062 245.838 32.1004 245.836C30.7704 245.841 29.7062 245.68 28.9078 245.353C28.0852 245.034 27.36 244.563 26.7322 243.941C25.7702 243.028 25.0541 241.929 24.5839 240.643C23.2091 236.322 24.6784 233.462 28.9919 232.063ZM29.1521 234.528C27.7062 234.996 26.8114 235.686 26.4675 236.597C26.1236 237.507 26.1822 238.673 26.6433 240.095C27.1044 241.517 27.869 242.561 28.9371 243.226C29.9811 243.9 31.5312 243.916 33.5873 243.276L30.6331 234.167C30.0554 234.275 29.5617 234.395 29.1521 234.528ZM37.0098 224.738C37.2947 223.078 37.3016 221.578 37.0307 220.237C36.7597 218.896 36.2558 217.809 35.5188 216.976C34.752 216.123 33.9092 215.789 32.9904 215.975C32.0717 216.161 31.4044 216.631 30.9885 217.387C30.5479 218.148 30.2465 219.023 30.0846 220.012C29.9226 221.001 29.7482 221.993 29.5613 222.987C29.3447 223.961 28.9539 224.841 28.3891 225.627C27.7995 226.419 26.9832 226.92 25.9403 227.13C24.3014 227.461 22.932 227.144 21.8321 226.177C20.7073 225.215 19.9718 223.878 19.6256 222.165C19.2744 220.426 19.2238 218.705 19.4738 217L21.285 217.138C21.1137 218.465 21.1862 219.911 21.5023 221.475C22.0241 224.058 23.2907 225.146 25.302 224.739C26.5933 224.478 27.4352 223.145 27.8279 220.74C27.9849 219.726 28.1816 218.717 28.4181 217.713C28.6247 216.689 29.0477 215.777 29.687 214.975C30.3213 214.149 31.1848 213.626 32.2773 213.405C33.9411 213.069 35.3654 213.531 36.5503 214.79C37.7353 216.05 38.5184 217.623 38.8998 219.51C39.2811 221.398 39.2971 223.204 38.9478 224.928L37.0098 224.738ZM28.1012 176.216C27.3032 175.81 26.606 175.42 26.0098 175.046C25.4143 174.646 24.9197 174.263 24.526 173.895L23.814 196.038L22.2189 195.987L22.9308 173.844C22.4889 174.185 21.9581 174.535 21.3382 174.896C20.7191 175.23 20.011 175.575 19.2138 175.93L19.2566 174.6C21.1562 173.065 22.5773 171.438 23.5196 169.719L24.2033 169.741C25.008 171.516 26.3216 173.231 28.144 174.886L28.1012 176.216Z" fill="black"/>
<defs>
<linearGradient id="paint0_linear_35_63" x1="67.9108" y1="156.55" x2="249.139" y2="216.415" gradientUnits="userSpaceOnUse">
<stop stop-color="#7083C7"/>
<stop offset="1" stop-color="#52189E"/>
</linearGradient>
</defs>
</svg>
